
        <svg xmlns="http://www.w3.org/2000/svg" xmlns:xlink="http://www.w3.org/1999/xlink" version="1.1" width="3171.4285714285716" height="2510.573094448709" viewBox="0 0 3171.4285714285716 2510.573094448709">
			
			<g transform="scale(8.571428571428571) translate(10, 10)">
				<defs id="SvgjsDefs1727"/><g id="SvgjsG1728" featureKey="symbolFeature-0" transform="matrix(2.6967097932609883,0,0,2.6967097932609883,71.57707383426961,-4.19214559509439)" fill="#fff"><g xmlns="http://www.w3.org/2000/svg"><path d="M 62.078125 44.167969 C 54 26.671875 59.210938 21.0625 59.265625 21.007812 C 59.351562 20.914062 59.367188 20.769531 59.296875 20.660156 C 59.21875 20.554688 59.082031 20.507812 58.960938 20.558594 C 58.84375 20.605469 47.605469 25.289062 49.019531 35.671875 C 45.933594 32.898438 31.535156 18.679688 40.34375 1.960938 C 40.398438 1.859375 40.382812 1.726562 40.304688 1.644531 C 40.222656 1.554688 40.09375 1.53125 39.992188 1.578125 C 39.804688 1.65625 35.3125 3.574219 31.730469 8.429688 C 28.425781 12.898438 25.351562 20.800781 29.492188 33.035156 C 30.996094 38.789062 28.15625 43.453125 26.636719 45.433594 C 27.007812 44.070312 27.480469 41.757812 27.402344 39.101562 C 27.28125 35.210938 25.878906 29.84375 19.890625 26.375 C 19.796875 26.320312 19.675781 26.324219 19.589844 26.390625 C 19.5 26.460938 19.460938 26.570312 19.484375 26.679688 C 19.507812 26.78125 21.746094 37.003906 17.816406 41.734375 C 14.425781 45.8125 11.101562 52.914062 12.898438 59.492188 C 14.40625 64.992188 19.117188 69.191406 26.902344 71.96875 C 28.898438 72.582031 30.804688 73.046875 32.917969 73.441406 C 33.054688 73.472656 33.1875 73.386719 33.230469 73.253906 C 33.273438 73.117188 33.203125 72.96875 33.078125 72.910156 C 29.082031 71.179688 24.960938 67.570312 28.023438 60.238281 C 30.941406 53.917969 30.417969 50.65625 29.835938 49.265625 C 31.34375 50.117188 34.339844 52.320312 33.589844 56.195312 C 33.570312 56.308594 33.621094 56.425781 33.722656 56.484375 C 33.824219 56.542969 33.945312 56.535156 34.039062 56.460938 C 34.132812 56.390625 43.136719 48.976562 39.046875 39.898438 C 41.0625 41.0625 46.410156 45.132812 43.257812 54.472656 C 42.207031 58.484375 45.0625 61.375 45.1875 61.492188 C 45.28125 61.585938 45.425781 61.601562 45.535156 61.527344 C 45.640625 61.460938 45.6875 61.320312 45.640625 61.195312 C 45.546875 60.945312 43.410156 55.199219 48.039062 52.027344 C 47.796875 53.5 47.410156 57.148438 49.066406 59.140625 C 50.554688 60.929688 51.992188 63.867188 51.550781 66.738281 C 51.242188 68.757812 50.050781 70.460938 47.992188 71.789062 C 47.875 71.871094 47.832031 72.015625 47.890625 72.140625 C 47.953125 72.269531 48.097656 72.328125 48.234375 72.285156 C 53.3125 70.605469 59.976562 67.269531 62.882812 60.898438 C 65.023438 56.203125 64.753906 50.574219 62.078125 44.167969 Z M 62.078125 44.167969 " stroke="none" fill-rule="nonzero" fill-opacity="1"/></g></g><g id="SvgjsG1729" featureKey="nameFeature-0" transform="matrix(2.0487024122556305,0,0,2.0487024122556305,-1.6005487595747114,190.15182152854192)" fill="#fff"><path d="M21.484375 12.011719 l5.371094 0 l-10.3125 27.988281 l-5.488281 0 l-10.273437 -27.988281 l5.371094 0 l7.675781 21.972656 z M47.324219 16.503906 l-10.683594 0 l0 7.285156 l9.453125 0 l0 4.453125 l-9.453125 0 l0 7.246094 l10.683594 0 l0 4.511719 l-15.820312 0 l0 -27.988281 l15.820313 0 l0 4.492188 z M72.578125 12.011719 l5.058594 0 l0 27.988281 l-5.742187 0 l-13.28125 -20.917969 l0 20.917969 l-5.039062 0 l0 -27.988281 l5.683594 0 l13.320313 20.761719 l0 -20.761719 z M103.867187 40 l-2.148437 -6.074219 l-12.070312 0 l-2.148437 6.074219 l-5.214844 0 l10.3125 -27.988281 l6.171875 0 l10.292969 27.988281 l-5.195312 0 z M91.171875 29.628906 l9.023438 0 l-4.511719 -12.753906 z M128.613281 40 l-7.246094 -12.421875 l-2.558594 0 l0 12.421875 l-5.097656 0 l0 -27.988281 l9.863281 0 c6.152344 0 8.808594 3.671875 8.808594 8.222656 c0 3.671875 -2.050781 6.171875 -6.035156 7.011719 l8.242188 12.753906 l-5.976562 0 z M118.808594 16.289063 l0 7.226563 l4.003906 0 c3.320313 0 4.726563 -1.445312 4.726563 -3.59375 s-1.40625 -3.632812 -4.726562 -3.632812 l-4.003906 0 z M139.433594 40 l0 -27.988281 l5.078125 0 l0 27.988281 l-5.078125 0 z M161.328125 40.390625 c-5.9375 0 -10.449219 -2.851562 -11.328125 -7.890625 l5.214844 -1.210937 c0.46875 3.183594 2.988281 4.902344 6.308594 4.902344 c2.617188 0 4.882813 -1.113281 4.863281 -3.867187 c-0.039062 -2.910156 -3.339844 -3.789062 -6.914062 -4.824219 c-4.199219 -1.25 -8.554687 -2.695312 -8.554687 -7.851562 c0 -5.195312 4.257813 -8.007812 9.6875 -8.007812 c4.902344 0 9.648438 2.03125 10.742188 7.167969 l-4.882812 1.210938 c-0.585937 -2.890625 -2.753906 -4.199219 -5.585937 -4.199219 c-2.519531 0 -4.84375 1.074219 -4.84375 3.730469 c0 2.441406 2.910156 3.222656 6.230469 4.160156 c4.296875 1.25 9.355469 2.792969 9.355469 8.378906 c0 5.839844 -4.902344 8.300781 -10.292969 8.300781 z"/></g>
			</g>
		</svg>
	